<?xml version="1.0" standalone="no"?>
<!DOCTYPE svg PUBLIC "-//W3C//DTD SVG 1.1//EN" "http://www.w3.org/Graphics/SVG/1.1/DTD/svg11.dtd" >
<svg xmlns="http://www.w3.org/2000/svg">
<metadata></metadata>
<defs>
<font id="niagara_solidregular" horiz-adv-x="614" >
<font-face units-per-em="2048" ascent="1638" descent="-410" />
<missing-glyph horiz-adv-x="307" />
<glyph horiz-adv-x="2048" />
<glyph horiz-adv-x="2048" />
<glyph unicode="&#xd;" horiz-adv-x="2048" />
<glyph unicode=" "  horiz-adv-x="307" />
<glyph unicode="&#x09;" horiz-adv-x="307" />
<glyph unicode="&#xa0;" horiz-adv-x="307" />
<glyph unicode="!" horiz-adv-x="319" d="M78 0v246h164v-246h-164zM78 852v582h164v-582l-52 -545h-61z" />
<glyph unicode="&#x22;" horiz-adv-x="492" d="M53 1397v37h164v-37l-49 -393h-66zM274 1397v37h164v-37l-49 -393h-65z" />
<glyph unicode="#" horiz-adv-x="717" d="M10 393v37h88l49 574h-96v36h101l32 394h160l-33 -394h152l33 394h159l-32 -394h84v-36h-89l-49 -574h97v-37h-101l-33 -393h-159l33 393h-152l-33 -393h-160l33 393h-84zM258 430h152l49 574h-152z" />
<glyph unicode="$" horiz-adv-x="578" d="M53 209v221h164v-311q0 -82 72 -82q71 0 71 82v239q0 102 -49 179l-205 319q-53 83 -53 184v185q0 81 59.5 140t151.5 67v124h49v-124q92 -8 151.5 -67t59.5 -140v-221h-164v311q0 82 -71 82q-72 0 -72 -82v-230q0 -101 49 -178l205 -319q53 -83 53 -185v-194 q0 -82 -59.5 -140.5t-151.5 -66.5v-125h-49v123q-92 9 -151.5 68t-59.5 141z" />
<glyph unicode="%" horiz-adv-x="993" d="M47 780v488q0 73 56 124.5t141 51.5q84 0 140 -51.5t56 -124.5v-488q0 -73 -56 -124.5t-140 -51.5q-85 0 -141 51.5t-56 124.5zM188 707q0 -66 56 -66q55 0 55 66v634q0 66 -55 66q-56 0 -56 -66v-634zM207 0l532 1434h47l-532 -1434h-47zM553 166v487q0 74 56 125 t141 51q84 0 140 -51t56 -125v-487q0 -73 -56 -124.5t-140 -51.5q-85 0 -141 51.5t-56 124.5zM694 92q0 -65 56 -65q55 0 55 65v635q0 66 -55 66q-56 0 -56 -66v-635z" />
<glyph unicode="&#x26;" horiz-adv-x="631" d="M61 199v368q0 131 144 191q-144 56 -144 190v287q0 86 72.5 147.5t173.5 61.5q102 0 174 -61.5t72 -147.5v-231h-164v321q0 34 -24 58t-58 24t-58 -24t-24 -58v-467q0 -34 24 -58t58 -24h297v-37h-51v-540q0 -86 -72 -147.5t-174 -61.5q-101 0 -173.5 61.5t-72.5 147.5z M225 109q0 -34 24 -58t58 -24t58 24t24 58v630h-82q-34 0 -58 -24t-24 -58v-548z" />
<glyph unicode="'" horiz-adv-x="270" d="M53 1397v37h164v-37l-49 -393h-66z" />
<glyph unicode="(" horiz-adv-x="358" d="M61 209v1016q0 87 66 148t166 61h31v-37h-31q-72 0 -72 -82v-1196q0 -82 72 -82h31v-37h-31q-100 0 -166 61t-66 148z" />
<glyph unicode=")" horiz-adv-x="358" d="M35 0v37h31q71 0 71 82v1196q0 82 -71 82h-31v37h31q100 0 165.5 -61t65.5 -148v-1016q0 -87 -65.5 -148t-165.5 -61h-31z" />
<glyph unicode="*" horiz-adv-x="553" d="M51 1061l129 123l-129 123l10 16l164 -43l41 154h21l41 -154l164 43l10 -16l-129 -123l129 -123l-10 -17l-164 43l-41 -153h-21l-41 153l-164 -43z" />
<glyph unicode="+" horiz-adv-x="471" d="M35 735v45h174v189h53v-189h174v-45h-174v-188h-53v188h-174z" />
<glyph unicode="," horiz-adv-x="256" d="M35 -123l33 369h157v-33l-114 -336h-76z" />
<glyph unicode="-" horiz-adv-x="307" d="M35 733v49h237v-49h-237z" />
<glyph unicode="." horiz-adv-x="256" d="M49 0v246h158v-246h-158z" />
<glyph unicode="/" horiz-adv-x="328" d="M33 0l205 1434h57l-205 -1434h-57z" />
<glyph unicode="0" d="M61 199v1036q0 86 72.5 147.5t173.5 61.5q102 0 174 -61.5t72 -147.5v-1036q0 -86 -72 -147.5t-174 -61.5q-101 0 -173.5 61.5t-72.5 147.5zM225 109q0 -34 24 -58t58 -24t58 24t24 58v1216q0 34 -24 58t-58 24t-58 -24t-24 -58v-1216z" />
<glyph unicode="1" horiz-adv-x="330" d="M35 0v37h51v1360h-51v37h215v-1397h51v-37h-266z" />
<glyph unicode="2" horiz-adv-x="594" d="M61 0v393q0 101 54 185l204 319q50 77 50 178v250q0 82 -72 82t-72 -82v-321h-164v231q0 87 68 148t168 61t167.5 -61t67.5 -148v-205q0 -101 -53 -184l-205 -320q-49 -76 -49 -178v-311h144v393h163v-430h-471z" />
<glyph unicode="3" horiz-adv-x="594" d="M57 199v231h164v-321q0 -82 74 -82t74 82v548q0 34 -24 58t-58 24h-125v37h125q34 0 58 24t24 58v467q0 82 -74 82t-74 -82v-321h-164v231q0 90 68 149.5t170 59.5t169.5 -59.5t67.5 -149.5v-287q0 -134 -143 -190q143 -60 143 -191v-368q0 -91 -67.5 -150t-169.5 -59 t-170 59t-68 150z" />
<glyph unicode="4" horiz-adv-x="532" d="M16 330v43l277 1061h164v-1061h51v-43h-51v-293h51v-37h-266v37h51v293h-277zM63 373h230v889z" />
<glyph unicode="5" d="M61 199v231h164v-321q0 -34 24 -58t58 -24t58 24t24 58v548q0 34 -24 58t-58 24h-235v695h460v-430h-163v393h-133v-621h71q102 0 174 -61.5t72 -147.5v-368q0 -86 -72 -147.5t-174 -61.5q-101 0 -173.5 61.5t-72.5 147.5z" />
<glyph unicode="6" d="M61 199v1036q0 86 72.5 147.5t173.5 61.5q102 0 174 -61.5t72 -147.5v-231h-164v321q0 34 -24 58t-58 24t-58 -24t-24 -58v-577q46 38 125 38q203 0 203 -188v-399q0 -86 -72 -147.5t-174 -61.5q-101 0 -173.5 61.5t-72.5 147.5zM225 109q0 -34 24 -58t58 -24t58 24 t24 58v559q0 77 -82 77q-44 0 -82 -34v-602z" />
<glyph unicode="7" horiz-adv-x="567" d="M35 1004v430h502v-37l-242 -1397h-162l242 1397h-180v-393h-160z" />
<glyph unicode="8" d="M61 199v368q0 131 144 191q-144 56 -144 190v287q0 86 72.5 147.5t173.5 61.5q102 0 174 -61.5t72 -147.5v-287q0 -134 -143 -190q143 -60 143 -191v-368q0 -86 -72 -147.5t-174 -61.5q-101 0 -173.5 61.5t-72.5 147.5zM225 109q0 -34 24 -58t58 -24t58 24t24 58v548 q0 34 -24 58t-58 24t-58 -24t-24 -58v-548zM225 858q0 -34 24 -58t58 -24t58 24t24 58v467q0 34 -24 58t-58 24t-58 -24t-24 -58v-467z" />
<glyph unicode="9" d="M61 199v231h164v-321q0 -34 24 -58t58 -24t58 24t24 58v577q-46 -39 -125 -39q-203 0 -203 189v399q0 86 72.5 147.5t173.5 61.5q102 0 174 -61.5t72 -147.5v-1036q0 -86 -72 -147.5t-174 -61.5q-101 0 -173.5 61.5t-72.5 147.5zM225 766q0 -78 82 -78q44 0 82 35v602 q0 34 -24 58t-58 24t-58 -24t-24 -58v-559z" />
<glyph unicode=":" horiz-adv-x="256" d="M49 0v246h158v-246h-158zM49 530v246h158v-246h-158z" />
<glyph unicode=";" horiz-adv-x="256" d="M20 -123l33 369h158v-33l-115 -336h-76zM53 530v246h158v-246h-158z" />
<glyph unicode="&#x3c;" horiz-adv-x="553" d="M61 737v41l402 174v-55l-336 -139l336 -140v-55z" />
<glyph unicode="=" horiz-adv-x="553" d="M76 645v47h401v-47h-401zM76 823v47h401v-47h-401z" />
<glyph unicode="&#x3e;" horiz-adv-x="553" d="M90 563v55l336 140l-336 139v55l402 -174v-41z" />
<glyph unicode="?" horiz-adv-x="561" d="M41 1004v231q0 87 67.5 148t167.5 61q101 0 168.5 -61t67.5 -148v-205q0 -101 -53 -184l-51 -80q-68 -106 -76 -193l-25 -266h-61l-29 307q-4 44 -4 80q0 69 35 123l51 80q49 77 49 178v250q0 82 -72 82q-71 0 -71 -82v-321h-164zM195 0v246h163v-246h-163z" />
<glyph unicode="@" horiz-adv-x="754" d="M61 438v557q0 119 90 202t226 83t227 -84q88 -82 88 -201v-508q0 -122 -119 -122q-76 0 -124 51q-52 -51 -113 -51q-135 0 -135 133v434q0 131 135 131q62 0 94 -27v21h115v-586q0 -74 49 -74q59 0 59 74v528q0 103 -78.5 173.5t-197.5 70.5t-198 -70.5t-79 -173.5v-565 q0 -102 79 -173t198 -71h172v-36h-172q-136 0 -226 83t-90 201zM315 444q0 -51 41 -51q44 0 74 41v576q-24 24 -61 24q-54 0 -54 -53v-537z" />
<glyph unicode="A" horiz-adv-x="563" d="M10 0v37h51l144 1397h164l133 -1397h51v-37h-266v37h51l-37 416h-147l-41 -416h51v-37h-154zM156 489h143l-68 775z" />
<glyph unicode="B" horiz-adv-x="625" d="M31 0v37h51v1360h-51v37h286q102 0 174 -61.5t72 -147.5v-277q0 -134 -143 -190q143 -60 143 -191v-358q0 -86 -72 -147.5t-174 -61.5h-286zM246 37h71q34 0 58 24t24 58v538q0 34 -24 58t-58 24h-71v-702zM246 776h71q34 0 58 24t24 58v457q0 34 -24 58t-58 24h-71v-621 z" />
<glyph unicode="C" d="M61 199v1036q0 86 72.5 147.5t173.5 61.5q102 0 174 -61.5t72 -147.5v-231h-164v321q0 34 -24 58t-58 24t-58 -24t-24 -58v-1216q0 -34 24 -58t58 -24t58 24t24 58v321h164v-231q0 -86 -72 -147.5t-174 -61.5q-101 0 -173.5 61.5t-72.5 147.5z" />
<glyph unicode="D" horiz-adv-x="625" d="M31 0v37h51v1360h-51v37h286q102 0 174 -61.5t72 -147.5v-1016q0 -86 -72 -147.5t-174 -61.5h-286zM246 37h71q34 0 58 24t24 58v1196q0 34 -24 58t-58 24h-71v-1360z" />
<glyph unicode="E" horiz-adv-x="594" d="M31 0v37h51v1360h-51v37h512v-430h-164v393h-133v-621h194v-37h-194v-702h133v393h164v-430h-512z" />
<glyph unicode="F" horiz-adv-x="563" d="M31 0v37h51v1360h-51v37h501v-430h-163v393h-123v-621h184v-37h-184v-702h51v-37h-266z" />
<glyph unicode="G" d="M61 199v1036q0 86 72.5 147.5t173.5 61.5q102 0 174 -61.5t72 -147.5v-231h-164v321q0 34 -24 58t-58 24t-58 -24t-24 -58v-1216q0 -34 24 -58t58 -24t58 24t24 58v630h-82v37h246v-577q0 -86 -72 -147.5t-174 -61.5q-101 0 -173.5 61.5t-72.5 147.5z" />
<glyph unicode="H" horiz-adv-x="655" d="M31 0v37h51v1360h-51v37h266v-37h-51v-621h164v621h-52v37h267v-37h-52v-1360h52v-37h-267v37h52v702h-164v-702h51v-37h-266z" />
<glyph unicode="I" horiz-adv-x="336" d="M35 0v37h51v1360h-51v37h266v-37h-51v-1360h51v-37h-266z" />
<glyph unicode="J" horiz-adv-x="563" d="M41 178v252h164v-330q0 -73 61 -73q62 0 62 73v1297h-52v37h267v-37h-51v-1219q0 -79 -62 -132q-65 -56 -164 -56t-163 56q-62 53 -62 132z" />
<glyph unicode="K" horiz-adv-x="635" d="M31 0v37h51v1360h-51v37h266v-37h-51v-621l225 621h-51v37h153v-37h-51l-176 -486l227 -874h52v-37h-199l-180 696v-659h51v-37h-266z" />
<glyph unicode="L" horiz-adv-x="563" d="M31 0v37h51v1360h-51v37h266v-37h-51v-1360h123v393h163v-430h-501z" />
<glyph unicode="M" horiz-adv-x="760" d="M31 0v37h51v1360h-51v37h217l141 -1117l123 1117h217v-37h-51v-1360h51v-37h-266v37h51v977l-115 -1014h-131l-135 1014v-977h51v-37h-153z" />
<glyph unicode="N" horiz-adv-x="594" d="M31 0v37h51v1360h-51v37h207l223 -996v959h-51v37h153v-37h-51v-1397h-131l-248 1116v-1079h51v-37h-153z" />
<glyph unicode="O" d="M61 199v1036q0 86 72.5 147.5t173.5 61.5q102 0 174 -61.5t72 -147.5v-1036q0 -86 -72 -147.5t-174 -61.5q-101 0 -173.5 61.5t-72.5 147.5zM225 109q0 -34 24 -58t58 -24t58 24t24 58v1216q0 34 -24 58t-58 24t-58 -24t-24 -58v-1216z" />
<glyph unicode="P" horiz-adv-x="604" d="M31 0v37h51v1360h-51v37h286q102 0 174 -61.5t72 -147.5v-402q0 -86 -72 -147.5t-174 -61.5h-71v-577h51v-37h-266zM246 651h71q34 0 58 24t24 58v582q0 34 -24 58t-58 24h-71v-746z" />
<glyph unicode="Q" d="M61 199v1036q0 86 72.5 147.5t173.5 61.5q102 0 174 -61.5t72 -147.5v-1036q0 -81 -65.5 -141.5t-159.5 -67.5v-174h-41v174q-95 7 -160.5 67.5t-65.5 141.5zM225 109q0 -62 62 -80v213h41v-213q61 18 61 80v1216q0 34 -24 58t-58 24t-58 -24t-24 -58v-1216z" />
<glyph unicode="R" horiz-adv-x="635" d="M31 0v37h51v1360h-51v37h286q102 0 174 -61.5t72 -147.5v-277q0 -134 -143 -190q143 -60 143 -191v-475q0 -55 47 -55h4v-37h-71q-144 0 -144 150v507q0 34 -24 58t-58 24h-71v-702h51v-37h-266zM246 776h71q34 0 58 24t24 58v457q0 34 -24 58t-58 24h-71v-621z" />
<glyph unicode="S" horiz-adv-x="578" d="M53 199v231h164v-321q0 -82 72 -82q71 0 71 82v249q0 102 -49 179l-205 319q-53 83 -53 184v195q0 87 67.5 148t168.5 61q100 0 167.5 -61t67.5 -148v-231h-164v321q0 82 -71 82q-72 0 -72 -82v-240q0 -101 49 -178l205 -319q53 -83 53 -185v-204q0 -87 -67.5 -148 t-167.5 -61q-101 0 -168.5 61t-67.5 148z" />
<glyph unicode="T" horiz-adv-x="676" d="M31 1004v430h614v-430h-151v393h-74v-1360h51v-37h-266v37h51v1360h-74v-393h-151z" />
<glyph unicode="U" horiz-adv-x="635" d="M20 1397v37h267v-37h-51v-1288q0 -34 24 -58t57 -24q34 0 58 24t24 58v1288h-51v37h266v-37h-51v-1198q0 -86 -72 -147.5t-174 -61.5q-101 0 -173 61.5t-72 147.5v1198h-52z" />
<glyph unicode="V" horiz-adv-x="563" d="M10 1397v37h266v-37h-51l107 -1227l119 1227h-52v37h154v-37h-51l-144 -1397h-163l-134 1397h-51z" />
<glyph unicode="W" horiz-adv-x="805" d="M10 1397v37h266v-37h-51l76 -1166l78 1203h164l80 -1203l69 1166h-51v37h154v-37h-52l-96 -1397h-164l-77 1182l-74 -1182h-164l-107 1397h-51z" />
<glyph unicode="X" horiz-adv-x="543" d="M10 0v37h51l134 645l-123 715h-52v37h277v-37h-51l82 -467l96 467h-51v37h149v-37h-51l-125 -584l135 -776h51v-37h-276v37h51l-90 526l-108 -526h51v-37h-150z" />
<glyph unicode="Y" horiz-adv-x="584" d="M10 1397v37h262v-37h-51l121 -713l131 713h-51v37h151v-37h-51l-153 -817v-543h51v-37h-266v37h51v543l-144 817h-51z" />
<glyph unicode="Z" horiz-adv-x="582" d="M41 0v37l336 1360h-174v-393h-152v430h490v-37l-336 -1360h174v393h151v-430h-489z" />
<glyph unicode="[" horiz-adv-x="358" d="M72 0v1434h252v-37h-93v-1360h93v-37h-252z" />
<glyph unicode="\" horiz-adv-x="328" d="M33 1434h57l205 -1434h-57z" />
<glyph unicode="]" horiz-adv-x="358" d="M35 0v37h92v1360h-92v37h252v-1434h-252z" />
<glyph unicode="^" horiz-adv-x="573" d="M92 1004l174 430h41l174 -430h-51l-143 358l-144 -358h-51z" />
<glyph unicode="_" horiz-adv-x="512" d="M0 -139h512v-45h-512v45z" />
<glyph unicode="`" d="M145 1413v21h174l84 -308h-45z" />
<glyph unicode="a" horiz-adv-x="551" d="M45 178v236q0 198 236 198h49v344q0 82 -60 82q-59 0 -59 -82v-217h-160v127q0 95 59.5 152t159.5 57q101 0 160 -57t59 -152v-829h52v-37h-211v29q-45 -39 -115 -39q-170 0 -170 188zM205 109q0 -78 55 -78q35 0 70 35v509h-47q-78 0 -78 -81v-385z" />
<glyph unicode="b" horiz-adv-x="573" d="M16 0v37h52v1360h-52v37h211v-398q45 39 119 39q174 0 174 -188v-709q0 -188 -174 -188q-74 0 -119 39v-29h-211zM227 66q35 -35 74 -35q59 0 59 78v847q0 78 -59 78q-39 0 -74 -35v-933z" />
<glyph unicode="c" horiz-adv-x="559" d="M51 199v667q0 88 66 148.5t166 60.5t165.5 -60.5t65.5 -148.5v-127h-160v217q0 82 -71 82q-72 0 -72 -82v-847q0 -82 72 -82q71 0 71 82v217h160v-127q0 -88 -65.5 -148.5t-165.5 -60.5t-166 60.5t-66 148.5z" />
<glyph unicode="d" horiz-adv-x="573" d="M53 178v709q0 188 174 188q74 0 119 -39v361h-51v37h211v-1397h51v-37h-211v29q-45 -39 -119 -39q-174 0 -174 188zM213 109q0 -78 59 -78q39 0 74 35v933q-35 35 -74 35q-59 0 -59 -78v-847z" />
<glyph unicode="e" horiz-adv-x="565" d="M51 199v667q0 88 66 148.5t166 60.5t165.5 -60.5t65.5 -148.5v-350h-303v-407q0 -82 72 -82q71 0 71 82v217h160v-127q0 -88 -65.5 -148.5t-165.5 -60.5t-166 60.5t-66 148.5zM211 553h143v403q0 82 -71 82q-72 0 -72 -82v-403z" />
<glyph unicode="f" horiz-adv-x="344" d="M27 0v37h51v991h-51v37h51v160q0 87 65.5 148t165.5 61h51v-37h-51q-71 0 -71 -82v-250h81v-37h-81v-991h51v-37h-262z" />
<glyph unicode="g" horiz-adv-x="573" d="M53 -51h160v-127q0 -82 70 -82q63 0 63 82v227q-45 -39 -119 -39q-174 0 -174 189v688q0 188 174 188q74 0 119 -39v29h211v-37h-51v-1116q0 -88 -62 -148.5t-161 -60.5q-93 0 -161.5 61.5t-68.5 147.5v37zM213 129q0 -78 59 -78q39 0 74 35v913q-35 35 -74 35 q-59 0 -59 -78v-827z" />
<glyph unicode="h" horiz-adv-x="582" d="M16 0v37h52v1360h-52v37h211v-398q45 39 119 39q174 0 174 -188v-850h51v-37h-211v956q0 78 -59 78q-39 0 -74 -35v-962h52v-37h-263z" />
<glyph unicode="i" horiz-adv-x="311" d="M27 0v37h51v991h-51v37h211v-1028h51v-37h-262zM78 1188v246h160v-246h-160z" />
<glyph unicode="j" horiz-adv-x="311" d="M-49 -250h51q72 0 72 82v1196h-51v37h210v-1143q0 -87 -65.5 -148t-165.5 -61h-51v37zM74 1188v246h159v-246h-159z" />
<glyph unicode="k" horiz-adv-x="575" d="M16 0v37h52v1360h-52v37h211v-842l205 436h-53v37h156v-37h-52l-151 -328l180 -663h55v-37h-207l-133 522v-485h52v-37h-263z" />
<glyph unicode="l" horiz-adv-x="307" d="M23 0v37h51v1360h-51v37h210v-1397h52v-37h-262z" />
<glyph unicode="m" horiz-adv-x="879" d="M20 0v37h52v991h-52v37h211v-29q45 39 119 39q99 0 142 -61q61 61 151 61q174 0 174 -188v-850h51v-37h-211v956q0 78 -59 78q-46 0 -92 -49q18 -40 18 -98v-850h51v-37h-210v956q0 78 -60 78q-39 0 -74 -35v-962h52v-37h-263z" />
<glyph unicode="n" horiz-adv-x="586" d="M20 0v37h52v991h-52v37h211v-29q45 39 119 39q174 0 174 -188v-850h51v-37h-210v956q0 78 -60 78q-39 0 -74 -35v-962h52v-37h-263z" />
<glyph unicode="o" horiz-adv-x="565" d="M51 199v667q0 88 66 148.5t166 60.5t165.5 -60.5t65.5 -148.5v-667q0 -88 -65.5 -148.5t-165.5 -60.5t-166 60.5t-66 148.5zM211 109q0 -82 72 -82q71 0 71 82v847q0 82 -71 82q-72 0 -72 -82v-847z" />
<glyph unicode="p" horiz-adv-x="573" d="M16 -250h52v1278h-52v37h211v-29q45 39 119 39q174 0 174 -188v-709q0 -188 -174 -188q-74 0 -119 39v-279h52v-37h-263v37zM227 66q35 -35 74 -35q59 0 59 78v847q0 78 -59 78q-39 0 -74 -35v-933z" />
<glyph unicode="q" horiz-adv-x="573" d="M53 178v709q0 188 174 188q74 0 119 -39v29h211v-37h-51v-1278h51v-37h-262v37h51v279q-45 -39 -119 -39q-174 0 -174 188zM213 109q0 -78 59 -78q39 0 74 35v933q-35 35 -74 35q-59 0 -59 -78v-847z" />
<glyph unicode="r" horiz-adv-x="535" d="M20 0v37h52v991h-52v37h211v-29q45 39 113 39q160 0 160 -188v-148h-160v217q0 78 -49 78q-32 0 -64 -35v-962h52v-37h-263z" />
<glyph unicode="s" horiz-adv-x="532" d="M43 199v127h160v-217q0 -82 65 -82q62 0 62 82v157q0 99 -56 154l-168 166q-63 62 -63 182v98q0 89 61 149t160 60t160 -60t61 -149v-127h-159v217q0 82 -62 82q-61 0 -61 -82v-141q0 -99 55 -153l168 -166q63 -63 63 -183v-114q0 -89 -59 -148q-63 -61 -162 -61 t-162 60.5t-63 148.5z" />
<glyph unicode="t" horiz-adv-x="371" d="M16 1028v37h52v297l159 72v-369h115v-37h-115v-909q0 -82 72 -82h51v-37h-51q-100 0 -165.5 61t-65.5 148v819h-52z" />
<glyph unicode="u" horiz-adv-x="582" d="M10 1028v37h211v-956q0 -78 60 -78q38 0 73 35v962h-51v37h211v-1028h51v-37h-211v29q-45 -39 -118 -39q-175 0 -175 188v850h-51z" />
<glyph unicode="v" horiz-adv-x="541" d="M10 1028v37h275v-37h-52l93 -833l100 833h-51v37h155v-37h-51l-135 -1028h-147l-136 1028h-51z" />
<glyph unicode="w" horiz-adv-x="743" d="M10 1028v37h260v-37h-51l57 -807l58 844h151l72 -844l68 807h-52v37h160v-37h-51l-94 -1028h-156l-70 776l-51 -776h-155l-95 1028h-51z" />
<glyph unicode="x" horiz-adv-x="522" d="M10 0v37h51l134 438l-129 553h-52v37h271v-37h-52l74 -332l96 332h-51v37h156v-37h-51l-129 -424l133 -567h51v-37h-270v37h51l-78 348l-100 -348h51v-37h-156z" />
<glyph unicode="y" horiz-adv-x="578" d="M10 1028v37h211v-936q0 -78 60 -78q38 0 73 35v942h-51v37h211v-1153q0 -88 -62 -148.5t-161 -60.5q-93 0 -161.5 61.5t-68.5 147.5v37h160v-127q0 -82 70 -82q63 0 63 82v227q-45 -39 -118 -39q-175 0 -175 189v829h-51z" />
<glyph unicode="z" horiz-adv-x="528" d="M35 0v37l291 991h-131v-289h-152v326h442v-37l-290 -991h139v289h151v-326h-450z" />
<glyph unicode="{" horiz-adv-x="430" d="M31 739v37h20q34 0 58 24t24 58v367q0 87 66 148t166 61h30v-37h-30q-72 0 -72 -82v-367q0 -134 -143 -190q143 -60 143 -191v-448q0 -82 72 -82h30v-37h-30q-100 0 -166 61t-66 148v448q0 34 -24 58t-58 24h-20z" />
<glyph unicode="|" horiz-adv-x="215" d="M82 -287v1721h51v-1721h-51z" />
<glyph unicode="}" horiz-adv-x="430" d="M35 0v37h31q71 0 71 82v448q0 131 144 191q-144 56 -144 190v367q0 82 -71 82h-31v37h31q100 0 165.5 -61t65.5 -148v-367q0 -34 24 -58t58 -24h20v-37h-20q-34 0 -58 -24t-24 -58v-448q0 -87 -65.5 -148t-165.5 -61h-31z" />
<glyph unicode="~" d="M59 668l13 63q21 112 127 112q22 0 47 -5l174 -37q12 -3 23 -3q44 0 77 56l35 -6l-12 -64q-22 -111 -125 -111q-22 0 -47 5l-172 37q-14 3 -25 3q-46 0 -80 -56z" />
<glyph unicode="&#xa1;" horiz-adv-x="319" d="M78 0v582l51 544h61l52 -544v-582h-164zM78 1188v246h164v-246h-164z" />
<glyph unicode="&#xa2;" horiz-adv-x="559" d="M51 362v709q0 82 58 140.5t149 66.5v176h49v-176q92 -8 149.5 -66.5t57.5 -140.5v-127h-160v217q0 82 -71 82q-72 0 -72 -82v-889q0 -82 72 -82q71 0 71 82v217h160v-127q0 -82 -57.5 -140.5t-149.5 -65.5v-176h-49v174q-91 9 -149 68t-58 140z" />
<glyph unicode="&#xa3;" horiz-adv-x="625" d="M20 0v37h52v702h-52v37h52v459q0 86 72 147.5t173 61.5q102 0 174 -61.5t72 -147.5v-231h-164v321q0 34 -24 58t-58 24q-33 0 -57 -24t-24 -58v-549h194v-37h-194v-702h163v393h164v-430h-543z" />
<glyph unicode="&#xa4;" horiz-adv-x="1221" d="M142 349l177 178v395l-177 177l118 118l194 -194h330l193 194l118 -118l-177 -178v-395l177 -177l-118 -118l-194 194h-330l-193 -194zM483 573l271 1v302h-271v-303z" />
<glyph unicode="&#xa5;" horiz-adv-x="584" d="M10 1397v37h262v-37h-51l121 -713l131 713h-51v37h151v-37h-51l-153 -817v-68h133v-37h-133v-67h133v-37h-133v-334h51v-37h-266v37h51v334h-133v37h133v67h-133v37h133v68l-144 817h-51z" />
<glyph unicode="&#xa6;" horiz-adv-x="215" d="M82 -287v1020h51v-1020h-51zM82 782v652h51v-652h-51z" />
<glyph unicode="&#xa7;" horiz-adv-x="594" d="M31 733q0 98 114 197l-12 10q-72 60 -72 186v109q0 87 68 148t168 61t167.5 -61t67.5 -148v-231h-163v321q0 82 -72 82t-72 -82v-166q0 -88 60 -137l188 -156q90 -74 90 -168q0 -97 -114 -196l10 -8q73 -59 73 -187v-108q0 -87 -67.5 -148t-167.5 -61t-168 61t-68 148 v231h164v-321q0 -82 72 -82t72 82v155q0 94 -62 146l-186 155q-90 76 -90 168zM143 823q0 -71 64 -123l213 -174q31 39 31 82q0 72 -76 133l-201 164q-31 -39 -31 -82z" />
<glyph unicode="&#xa8;" d="M125 1143v215h143v-215h-143zM346 1143v215h143v-215h-143z" />
<glyph unicode="&#xa9;" horiz-adv-x="754" d="M61 274v885q0 119 90 202t226 83t227 -84q88 -82 88 -201v-885q0 -118 -88 -200q-91 -84 -227 -84t-226 83t-90 201zM100 270q0 -102 79 -172.5t198 -70.5t197.5 70.5t78.5 172.5v893q0 103 -78.5 173.5t-197.5 70.5t-198 -70.5t-79 -173.5v-893zM205 358v725 q0 60 50.5 103t121.5 43t121.5 -43t50.5 -103v-161h-115v225q0 57 -57 57q-58 0 -58 -57v-852q0 -57 58 -57q57 0 57 57v225h115v-162q0 -59 -50.5 -102t-121.5 -43t-121.5 43t-50.5 102z" />
<glyph unicode="&#xaa;" horiz-adv-x="502" d="M55 758v157q0 164 201 164h41v264q0 70 -49 70q-47 0 -47 -70v-165h-138v90q0 79 50 127.5t135 48.5t135.5 -48.5t50.5 -127.5v-627h41v-33h-178v25q-36 -31 -94 -31q-148 0 -148 156zM195 700q0 -65 45 -65q26 0 57 31v385h-37q-65 0 -65 -70v-281z" />
<glyph unicode="&#xab;" d="M33 655v41l209 369h61l-92 -389l92 -387h-61zM287 655v41l209 369h61l-92 -389l92 -387h-61z" />
<glyph unicode="&#xac;" horiz-adv-x="942" d="M119 624v124h704v-416h-124v292h-580z" />
<glyph unicode="&#xad;" horiz-adv-x="307" d="M35 733v49h237v-49h-237z" />
<glyph unicode="&#xae;" horiz-adv-x="754" d="M61 274v885q0 119 90 202t226 83t227 -84q88 -82 88 -201v-885q0 -118 -88 -200q-91 -84 -227 -84t-226 83t-90 201zM100 270q0 -102 79 -172.5t198 -70.5t197.5 70.5t78.5 172.5v893q0 103 -78.5 173.5t-197.5 70.5t-198 -70.5t-79 -173.5v-893zM180 227v27h35v950h-35 v27h201q71 0 121.5 -43t50.5 -103v-194q0 -94 -100 -133q100 -43 100 -133v-329q0 -42 32 -42h3v-27h-49q-101 0 -101 115v346q0 57 -57 57h-51v-491h37v-27h-187zM330 770h51q57 0 57 57v320q0 57 -57 57h-51v-434z" />
<glyph unicode="&#xaf;" d="M102 1174v122h410v-122h-410z" />
<glyph unicode="&#xb0;" horiz-adv-x="565" d="M51 813v422q0 87 66 148t166 61t165.5 -61t65.5 -148v-422q0 -87 -65.5 -148t-165.5 -61t-166 61t-66 148zM211 723q0 -82 72 -82q71 0 71 82v602q0 82 -71 82q-72 0 -72 -82v-602z" />
<glyph unicode="&#xb1;" horiz-adv-x="838" d="M68 190v123h704v-123h-704zM70 650v114h290v264h119v-264h289v-114h-289v-254h-119v254h-290z" />
<glyph unicode="&#xb2;" horiz-adv-x="506" d="M51 614v131q0 66 47 125l170 213q45 56 45 121v133q0 74 -59 74t-59 -74v-199h-144v119q0 82 56.5 134t146.5 52t146.5 -52t56.5 -134v-102q0 -61 -47 -117l-170 -203q-45 -54 -45 -112v-76h118v186h144v-219h-406z" />
<glyph unicode="&#xb3;" horiz-adv-x="494" d="M41 792v107h143v-187q0 -73 60 -73q59 0 59 73v232q0 73 -74 73h-94v35h94q74 0 74 74v211q0 74 -59 74q-60 0 -60 -74v-188h-143v108q0 85 55.5 135.5t147.5 50.5q91 0 146.5 -51t55.5 -135v-59q0 -120 -129 -164q129 -41 129 -162v-80q0 -85 -55.5 -135.5t-146.5 -50.5 q-93 0 -148 50t-55 136z" />
<glyph unicode="&#xb4;" d="M211 1126l84 308h174v-21l-213 -287h-45z" />
<glyph unicode="&#xb6;" horiz-adv-x="604" d="M41 823v402q0 86 72 147.5t174 61.5h286v-37h-51v-1360h51v-37h-133v1397h-41v-1397h-92v37h51v577h-71q-102 0 -174 61.5t-72 147.5zM205 733q0 -34 24 -58t58 -24h71v746h-71q-34 0 -58 -24t-24 -58v-582z" />
<glyph unicode="&#xb7;" horiz-adv-x="256" d="M49 635v246h158v-246h-158z" />
<glyph unicode="&#xb8;" d="M199 -256h39q63 0 63 84t-63 84h-9v27l35 61h45l-35 -57h35q125 0 125 -115t-125 -115h-110v31z" />
<glyph unicode="&#xb9;" horiz-adv-x="326" d="M35 614v37h51v745h-51v37h211v-782h51v-37h-262z" />
<glyph unicode="&#xba;" horiz-adv-x="524" d="M66 776v494q0 71 56.5 122.5t139.5 51.5q84 0 140.5 -51.5t56.5 -122.5v-494q0 -71 -56.5 -122.5t-140.5 -51.5q-83 0 -139.5 51.5t-56.5 122.5zM205 700q0 -67 57 -67q60 0 60 67v646q0 67 -60 67q-57 0 -57 -67v-646z" />
<glyph unicode="&#xbb;" d="M57 289l93 387l-93 389h62l209 -369v-41l-209 -366h-62zM311 289l92 387l-92 389h62l209 -369v-41l-209 -366h-62z" />
<glyph unicode="&#xbc;" horiz-adv-x="1024" d="M35 614v37h51v745h-51v37h211v-782h51v-37h-262zM217 0l461 1434h47l-460 -1434h-48zM527 223v39l222 557h143v-557h47v-39h-47v-190h47v-33h-237v33h47v190h-222zM570 262h179v461z" />
<glyph unicode="&#xbd;" horiz-adv-x="1024" d="M35 614v37h51v745h-51v37h211v-782h51v-37h-262zM196 0l461 1434h47l-460 -1434h-48zM563 0v131q0 66 47 125l170 213q45 56 45 121v133q0 74 -59 74t-59 -74v-199h-144v119q0 82 56.5 134t146.5 52t146.5 -52t56.5 -134v-102q0 -61 -47 -117l-170 -203q-45 -54 -45 -112 v-76h118v186h144v-219h-406z" />
<glyph unicode="&#xbe;" horiz-adv-x="1024" d="M41 792v107h143v-187q0 -73 60 -73q59 0 59 73v232q0 73 -74 73h-94v35h94q74 0 74 74v211q0 74 -59 74q-60 0 -60 -74v-188h-143v108q0 85 55.5 135.5t147.5 50.5q91 0 146.5 -51t55.5 -135v-59q0 -120 -129 -164q129 -41 129 -162v-80q0 -85 -55.5 -135.5t-146.5 -50.5 q-93 0 -148 50t-55 136zM299 0l461 1434h47l-460 -1434h-48zM557 223v39l222 557h143v-557h47v-39h-47v-190h47v-33h-237v33h47v190h-222zM600 262h179v461z" />
<glyph unicode="&#xbf;" horiz-adv-x="561" d="M49 199v204q0 102 53 185l52 80q67 105 75 192l25 266h61l29 -307q4 -44 4 -80q0 -68 -35 -123l-51 -79q-49 -77 -49 -179v-249q0 -82 72 -82q71 0 71 82v321h164v-231q0 -87 -67.5 -148t-167.5 -61q-101 0 -168.5 61t-67.5 148zM203 1188v246h164v-246h-164z" />
<glyph unicode="&#xc0;" horiz-adv-x="563" d="M10 0v37h51l144 1397h164l133 -1397h51v-37h-266v37h51l-37 416h-147l-41 -416h51v-37h-154zM59 1771v21h174l84 -308h-45zM156 489h143l-68 775z" />
<glyph unicode="&#xc1;" horiz-adv-x="563" d="M10 0v37h51l144 1397h164l133 -1397h51v-37h-266v37h51l-37 416h-147l-41 -416h51v-37h-154zM156 489h143l-68 775zM248 1484l84 308h174v-21l-213 -287h-45z" />
<glyph unicode="&#xc2;" horiz-adv-x="563" d="M10 0v37h51l144 1397h164l133 -1397h51v-37h-266v37h51l-37 416h-147l-41 -416h51v-37h-154zM97 1478l155 308h78l158 -308h-45l-150 146l-149 -146h-47zM156 489h143l-68 775z" />
<glyph unicode="&#xc3;" horiz-adv-x="563" d="M10 0v37h51l144 1397h164l133 -1397h51v-37h-266v37h51l-37 416h-147l-41 -416h51v-37h-154zM50 1495l12 60q23 112 122 112q23 0 50 -6l156 -37q14 -3 26 -3q46 0 74 56l35 -10l-13 -59q-23 -113 -121 -113q-24 0 -51 6l-155 37q-15 4 -27 4q-45 0 -74 -57zM156 489h143 l-68 775z" />
<glyph unicode="&#xc4;" horiz-adv-x="563" d="M10 0v37h51l144 1397h164l133 -1397h51v-37h-266v37h51l-37 416h-147l-41 -416h51v-37h-154zM107 1485v215h143v-215h-143zM156 489h143l-68 775zM328 1485v215h143v-215h-143z" />
<glyph unicode="&#xc5;" horiz-adv-x="563" d="M10 0v37h51l144 1397h164l133 -1397h51v-37h-266v37h51l-37 416h-147l-41 -416h51v-37h-154zM93 1638q0 154 194 154q195 0 195 -154t-195 -154q-194 0 -194 154zM156 489h143l-68 775zM234 1577q0 -62 53 -62t53 62v122q0 62 -53 62t-53 -62v-122z" />
<glyph unicode="&#xc6;" horiz-adv-x="829" d="M0 0v37h41l227 1360h-45v37h555v-430h-164v393h-133v-621h195v-37h-195v-702h133v393h164v-430h-512v37h51v416h-155l-70 -416h51v-37h-143zM168 489h149v914z" />
<glyph unicode="&#xc7;" d="M61 199v1036q0 86 72.5 147.5t173.5 61.5q102 0 174 -61.5t72 -147.5v-231h-164v321q0 34 -24 58t-58 24t-58 -24t-24 -58v-1216q0 -34 24 -58t58 -24t58 24t24 58v321h164v-231q0 -86 -72 -147.5t-174 -61.5q-101 0 -173.5 61.5t-72.5 147.5zM205 -256h39q63 0 63 84 t-63 84h-9v27l35 61h45l-35 -57h35q125 0 125 -115t-125 -115h-110v31z" />
<glyph unicode="&#xc8;" horiz-adv-x="594" d="M31 0v37h51v1360h-51v37h512v-430h-164v393h-133v-621h194v-37h-194v-702h133v393h164v-430h-512zM92 1771v21h174l84 -308h-45z" />
<glyph unicode="&#xc9;" horiz-adv-x="594" d="M31 0v37h51v1360h-51v37h512v-430h-164v393h-133v-621h194v-37h-194v-702h133v393h164v-430h-512zM254 1484l84 308h174v-21l-213 -287h-45z" />
<glyph unicode="&#xca;" horiz-adv-x="594" d="M31 0v37h51v1360h-51v37h512v-430h-164v393h-133v-621h194v-37h-194v-702h133v393h164v-430h-512zM105 1484l155 308h78l158 -308h-45l-150 146l-149 -146h-47z" />
<glyph unicode="&#xcb;" horiz-adv-x="594" d="M31 0v37h51v1360h-51v37h512v-430h-164v393h-133v-621h194v-37h-194v-702h133v393h164v-430h-512zM123 1485v215h143v-215h-143zM344 1485v215h143v-215h-143z" />
<glyph unicode="&#xcc;" horiz-adv-x="336" d="M-60 1771v21h174l84 -308h-45zM35 0v37h51v1360h-51v37h266v-37h-51v-1360h51v-37h-266z" />
<glyph unicode="&#xcd;" horiz-adv-x="336" d="M35 0v37h51v1360h-51v37h266v-37h-51v-1360h51v-37h-266zM131 1484l84 308h174v-21l-213 -287h-45z" />
<glyph unicode="&#xce;" horiz-adv-x="336" d="M-26 1484l155 308h78l158 -308h-45l-150 146l-149 -146h-47zM35 0v37h51v1360h-51v37h266v-37h-51v-1360h51v-37h-266z" />
<glyph unicode="&#xcf;" horiz-adv-x="336" d="M-16 1485v215h143v-215h-143zM35 0v37h51v1360h-51v37h266v-37h-51v-1360h51v-37h-266zM205 1485v215h143v-215h-143z" />
<glyph unicode="&#xd0;" horiz-adv-x="625" d="M31 0v37h51v702h-51v37h51v621h-51v37h286q102 0 174 -61.5t72 -147.5v-1016q0 -86 -72 -147.5t-174 -61.5h-286zM246 37h71q34 0 58 24t24 58v1196q0 34 -24 58t-58 24h-71v-621h51v-37h-51v-702z" />
<glyph unicode="&#xd1;" horiz-adv-x="594" d="M31 0v37h51v1360h-51v37h207l223 -996v959h-51v37h153v-37h-51v-1397h-131l-248 1116v-1079h51v-37h-153zM74 1495l12 60q23 112 122 112q23 0 50 -6l156 -37q14 -3 26 -3q46 0 74 56l35 -10l-13 -59q-23 -113 -121 -113q-24 0 -51 6l-155 37q-15 4 -27 4q-45 0 -74 -57z " />
<glyph unicode="&#xd2;" d="M61 199v1036q0 86 72.5 147.5t173.5 61.5q102 0 174 -61.5t72 -147.5v-1036q0 -86 -72 -147.5t-174 -61.5q-101 0 -173.5 61.5t-72.5 147.5zM84 1771v21h174l84 -308h-45zM225 109q0 -34 24 -58t58 -24t58 24t24 58v1216q0 34 -24 58t-58 24t-58 -24t-24 -58v-1216z" />
<glyph unicode="&#xd3;" d="M61 199v1036q0 86 72.5 147.5t173.5 61.5q102 0 174 -61.5t72 -147.5v-1036q0 -86 -72 -147.5t-174 -61.5q-101 0 -173.5 61.5t-72.5 147.5zM225 109q0 -34 24 -58t58 -24t58 24t24 58v1216q0 34 -24 58t-58 24t-58 -24t-24 -58v-1216zM270 1484l84 308h174v-21 l-213 -287h-45z" />
<glyph unicode="&#xd4;" d="M61 199v1036q0 86 72.5 147.5t173.5 61.5q102 0 174 -61.5t72 -147.5v-1036q0 -86 -72 -147.5t-174 -61.5q-101 0 -173.5 61.5t-72.5 147.5zM113 1484l155 308h78l158 -308h-45l-150 146l-149 -146h-47zM225 109q0 -34 24 -58t58 -24t58 24t24 58v1216q0 34 -24 58 t-58 24t-58 -24t-24 -58v-1216z" />
<glyph unicode="&#xd5;" d="M61 199v1036q0 86 72.5 147.5t173.5 61.5q102 0 174 -61.5t72 -147.5v-1036q0 -86 -72 -147.5t-174 -61.5q-101 0 -173.5 61.5t-72.5 147.5zM76 1495l12 60q23 112 122 112q23 0 50 -6l156 -37q14 -3 26 -3q46 0 74 56l35 -10l-13 -59q-23 -113 -121 -113q-24 0 -51 6 l-155 37q-15 4 -27 4q-45 0 -74 -57zM225 109q0 -34 24 -58t58 -24t58 24t24 58v1216q0 34 -24 58t-58 24t-58 -24t-24 -58v-1216z" />
<glyph unicode="&#xd6;" d="M61 199v1036q0 86 72.5 147.5t173.5 61.5q102 0 174 -61.5t72 -147.5v-1036q0 -86 -72 -147.5t-174 -61.5q-101 0 -173.5 61.5t-72.5 147.5zM127 1485v215h143v-215h-143zM225 109q0 -34 24 -58t58 -24t58 24t24 58v1216q0 34 -24 58t-58 24t-58 -24t-24 -58v-1216z M348 1485v215h143v-215h-143z" />
<glyph unicode="&#xd7;" horiz-adv-x="471" d="M55 612l146 146l-146 145l35 35l146 -145l145 145l35 -35l-146 -145l146 -146l-35 -34l-145 145l-146 -145z" />
<glyph unicode="&#xd8;" d="M61 199v1036q0 86 72.5 147.5t173.5 61.5q68 0 129 -31l37 143h49l-45 -172q76 -59 76 -149v-1036q0 -86 -72 -147.5t-174 -61.5q-67 0 -129 30l-37 -143h-49l45 172q-76 59 -76 150zM225 109q0 -34 24 -58t58 -24t58 24t24 58v874l-164 -762v-112zM225 449l164 763v113 q0 34 -24 58t-58 24t-58 -24t-24 -58v-876z" />
<glyph unicode="&#xd9;" horiz-adv-x="635" d="M20 1397v37h267v-37h-51v-1288q0 -34 24 -58t57 -24q34 0 58 24t24 58v1288h-51v37h266v-37h-51v-1198q0 -86 -72 -147.5t-174 -61.5q-101 0 -173 61.5t-72 147.5v1198h-52zM90 1771v21h174l84 -308h-45z" />
<glyph unicode="&#xda;" horiz-adv-x="635" d="M20 1397v37h267v-37h-51v-1288q0 -34 24 -58t57 -24q34 0 58 24t24 58v1288h-51v37h266v-37h-51v-1198q0 -86 -72 -147.5t-174 -61.5q-101 0 -173 61.5t-72 147.5v1198h-52zM239 1484l84 308h174v-21l-213 -287h-45z" />
<glyph unicode="&#xdb;" horiz-adv-x="635" d="M20 1397v37h267v-37h-51v-1288q0 -34 24 -58t57 -24q34 0 58 24t24 58v1288h-51v37h266v-37h-51v-1198q0 -86 -72 -147.5t-174 -61.5q-101 0 -173 61.5t-72 147.5v1198h-52zM123 1484l155 308h78l158 -308h-45l-150 146l-149 -146h-47z" />
<glyph unicode="&#xdc;" horiz-adv-x="635" d="M20 1397v37h267v-37h-51v-1288q0 -34 24 -58t57 -24q34 0 58 24t24 58v1288h-51v37h266v-37h-51v-1198q0 -86 -72 -147.5t-174 -61.5q-101 0 -173 61.5t-72 147.5v1198h-52zM137 1485v215h143v-215h-143zM358 1485v215h143v-215h-143z" />
<glyph unicode="&#xdd;" horiz-adv-x="584" d="M10 1397v37h262v-37h-51l121 -713l131 713h-51v37h151v-37h-51l-153 -817v-543h51v-37h-266v37h51v543l-144 817h-51zM262 1484l84 308h174v-21l-213 -287h-45z" />
<glyph unicode="&#xde;" horiz-adv-x="604" d="M31 0v37h51v1360h-51v37h266v-37h-51v-240h71q102 0 174 -61.5t72 -147.5v-401q0 -86 -72 -147.5t-174 -61.5h-71v-301h51v-37h-266zM246 375h71q34 0 58 24t24 58v581q0 34 -24 58t-58 24h-71v-745z" />
<glyph unicode="&#xdf;" horiz-adv-x="573" d="M16 0v37h52v1198q0 88 63.5 148.5t163.5 60.5t163.5 -60.5t63.5 -148.5v-287q0 -134 -143 -190q143 -60 143 -191v-358q0 -87 -65.5 -148t-165.5 -61h-21v37h21q71 0 71 82v538q0 34 -24 58t-57 24h-11v37h11q33 0 57 24t24 58v467q0 82 -67 82q-68 0 -68 -82v-1325h-211 z" />
<glyph unicode="&#xe0;" horiz-adv-x="551" d="M45 178v236q0 198 236 198h49v344q0 82 -60 82q-59 0 -59 -82v-217h-160v127q0 95 59.5 152t159.5 57q101 0 160 -57t59 -152v-829h52v-37h-211v29q-45 -39 -115 -39q-170 0 -170 188zM57 1413v21h174l84 -308h-45zM205 109q0 -78 55 -78q35 0 70 35v509h-47 q-78 0 -78 -81v-385z" />
<glyph unicode="&#xe1;" horiz-adv-x="551" d="M45 178v236q0 198 236 198h49v344q0 82 -60 82q-59 0 -59 -82v-217h-160v127q0 95 59.5 152t159.5 57q101 0 160 -57t59 -152v-829h52v-37h-211v29q-45 -39 -115 -39q-170 0 -170 188zM205 109q0 -78 55 -78q35 0 70 35v509h-47q-78 0 -78 -81v-385zM234 1126l84 308h174 v-21l-213 -287h-45z" />
<glyph unicode="&#xe2;" horiz-adv-x="551" d="M45 178v236q0 198 236 198h49v344q0 82 -60 82q-59 0 -59 -82v-217h-160v127q0 95 59.5 152t159.5 57q101 0 160 -57t59 -152v-829h52v-37h-211v29q-45 -39 -115 -39q-170 0 -170 188zM76 1126l155 308h78l158 -308h-45l-150 146l-149 -146h-47zM205 109q0 -78 55 -78 q35 0 70 35v509h-47q-78 0 -78 -81v-385z" />
<glyph unicode="&#xe3;" horiz-adv-x="551" d="M45 178v236q0 198 236 198h49v344q0 82 -60 82q-59 0 -59 -82v-217h-160v127q0 95 59.5 152t159.5 57q101 0 160 -57t59 -152v-829h52v-37h-211v29q-45 -39 -115 -39q-170 0 -170 188zM50 1159l12 60q23 112 122 112q23 0 50 -6l156 -37q14 -3 26 -3q46 0 74 56l35 -10 l-13 -59q-23 -113 -121 -113q-24 0 -51 6l-155 37q-15 4 -27 4q-45 0 -74 -57zM205 109q0 -78 55 -78q35 0 70 35v509h-47q-78 0 -78 -81v-385z" />
<glyph unicode="&#xe4;" horiz-adv-x="551" d="M45 178v236q0 198 236 198h49v344q0 82 -60 82q-59 0 -59 -82v-217h-160v127q0 95 59.5 152t159.5 57q101 0 160 -57t59 -152v-829h52v-37h-211v29q-45 -39 -115 -39q-170 0 -170 188zM96 1143v215h143v-215h-143zM205 109q0 -78 55 -78q35 0 70 35v509h-47 q-78 0 -78 -81v-385zM317 1143v215h143v-215h-143z" />
<glyph unicode="&#xe5;" horiz-adv-x="551" d="M45 178v236q0 198 236 198h49v344q0 82 -60 82q-59 0 -59 -82v-217h-160v127q0 95 59.5 152t159.5 57q101 0 160 -57t59 -152v-829h52v-37h-211v29q-45 -39 -115 -39q-170 0 -170 188zM82 1280q0 154 194 154q195 0 195 -154t-195 -154q-194 0 -194 154zM205 109 q0 -78 55 -78q35 0 70 35v509h-47q-78 0 -78 -81v-385zM223 1219q0 -62 53 -62t53 62v122q0 62 -53 62t-53 -62v-122z" />
<glyph unicode="&#xe6;" horiz-adv-x="844" d="M45 199v215q0 198 236 198h49v344q0 82 -60 82q-59 0 -59 -82v-217h-160v127q0 95 59.5 152t159.5 57q88 0 146 -45q61 45 145 45q100 0 166 -60.5t66 -148.5v-350h-304v-407q0 -82 72 -82t72 82v217h160v-127q0 -88 -66 -148.5t-166 -60.5q-76 0 -151 59 q-64 -59 -144 -59q-101 0 -161 57t-60 152zM205 109q0 -82 61 -82q64 0 64 82v466h-47q-78 0 -78 -81v-385zM489 553h144v403q0 82 -72 82t-72 -82v-403z" />
<glyph unicode="&#xe7;" horiz-adv-x="559" d="M51 199v667q0 88 66 148.5t166 60.5t165.5 -60.5t65.5 -148.5v-127h-160v217q0 82 -71 82q-72 0 -72 -82v-847q0 -82 72 -82q71 0 71 82v217h160v-127q0 -88 -65.5 -148.5t-165.5 -60.5t-166 60.5t-66 148.5zM183 -256h39q63 0 63 84t-63 84h-9v27l35 61h45l-35 -57h35 q125 0 125 -115t-125 -115h-110v31z" />
<glyph unicode="&#xe8;" horiz-adv-x="565" d="M51 199v667q0 88 66 148.5t166 60.5t165.5 -60.5t65.5 -148.5v-350h-303v-407q0 -82 72 -82q71 0 71 82v217h160v-127q0 -88 -65.5 -148.5t-165.5 -60.5t-166 60.5t-66 148.5zM67 1413v21h174l84 -308h-45zM211 553h143v403q0 82 -71 82q-72 0 -72 -82v-403z" />
<glyph unicode="&#xe9;" horiz-adv-x="565" d="M51 199v667q0 88 66 148.5t166 60.5t165.5 -60.5t65.5 -148.5v-350h-303v-407q0 -82 72 -82q71 0 71 82v217h160v-127q0 -88 -65.5 -148.5t-165.5 -60.5t-166 60.5t-66 148.5zM211 553h143v403q0 82 -71 82q-72 0 -72 -82v-403zM242 1126l84 308h174v-21l-213 -287h-45z " />
<glyph unicode="&#xea;" horiz-adv-x="565" d="M51 199v667q0 88 66 148.5t166 60.5t165.5 -60.5t65.5 -148.5v-350h-303v-407q0 -82 72 -82q71 0 71 82v217h160v-127q0 -88 -65.5 -148.5t-165.5 -60.5t-166 60.5t-66 148.5zM86 1126l155 308h78l158 -308h-45l-150 146l-149 -146h-47zM211 553h143v403q0 82 -71 82 q-72 0 -72 -82v-403z" />
<glyph unicode="&#xeb;" horiz-adv-x="565" d="M51 199v667q0 88 66 148.5t166 60.5t165.5 -60.5t65.5 -148.5v-350h-303v-407q0 -82 72 -82q71 0 71 82v217h160v-127q0 -88 -65.5 -148.5t-165.5 -60.5t-166 60.5t-66 148.5zM100 1143v215h143v-215h-143zM211 553h143v403q0 82 -71 82q-72 0 -72 -82v-403zM321 1143 v215h143v-215h-143z" />
<glyph unicode="&#xec;" horiz-adv-x="311" d="M-76 1413v21h174l84 -308h-45zM27 0v37h51v991h-51v37h211v-1028h51v-37h-262z" />
<glyph unicode="&#xed;" horiz-adv-x="311" d="M27 0v37h51v991h-51v37h211v-1028h51v-37h-262zM113 1126l84 308h174v-21l-213 -287h-45z" />
<glyph unicode="&#xee;" horiz-adv-x="311" d="M-43 1126l155 308h78l158 -308h-45l-150 146l-149 -146h-47zM27 0v37h51v991h-51v37h211v-1028h51v-37h-262z" />
<glyph unicode="&#xef;" horiz-adv-x="311" d="M-29 1143v215h143v-215h-143zM27 0v37h51v991h-51v37h211v-1028h51v-37h-262zM192 1143v215h143v-215h-143z" />
<glyph unicode="&#xf0;" horiz-adv-x="565" d="M51 199v688q0 188 178 188q76 0 125 -39v189l-92 -49v41l92 49v49q0 82 -71 82h-52v37h52q136 0 198 -101l84 43v-41l-65 -35q14 -43 14 -75v-1026q0 -88 -65.5 -148.5t-165.5 -60.5t-166 60.5t-66 148.5zM211 109q0 -82 72 -82q71 0 71 82v890q-35 35 -84 35 q-59 0 -59 -78v-847z" />
<glyph unicode="&#xf1;" horiz-adv-x="586" d="M20 0v37h52v991h-52v37h211v-29q45 39 119 39q174 0 174 -188v-850h51v-37h-210v956q0 78 -60 78q-39 0 -74 -35v-962h52v-37h-263zM58 1159l12 60q23 112 122 112q23 0 50 -6l156 -37q14 -3 26 -3q46 0 74 56l35 -10l-13 -59q-23 -113 -121 -113q-24 0 -51 6l-155 37 q-15 4 -27 4q-45 0 -74 -57z" />
<glyph unicode="&#xf2;" horiz-adv-x="565" d="M51 199v667q0 88 66 148.5t166 60.5t165.5 -60.5t65.5 -148.5v-667q0 -88 -65.5 -148.5t-165.5 -60.5t-166 60.5t-66 148.5zM55 1413v21h174l84 -308h-45zM211 109q0 -82 72 -82q71 0 71 82v847q0 82 -71 82q-72 0 -72 -82v-847z" />
<glyph unicode="&#xf3;" horiz-adv-x="565" d="M51 199v667q0 88 66 148.5t166 60.5t165.5 -60.5t65.5 -148.5v-667q0 -88 -65.5 -148.5t-165.5 -60.5t-166 60.5t-66 148.5zM211 109q0 -82 72 -82q71 0 71 82v847q0 82 -71 82q-72 0 -72 -82v-847zM240 1126l84 308h174v-21l-213 -287h-45z" />
<glyph unicode="&#xf4;" horiz-adv-x="565" d="M51 199v667q0 88 66 148.5t166 60.5t165.5 -60.5t65.5 -148.5v-667q0 -88 -65.5 -148.5t-165.5 -60.5t-166 60.5t-66 148.5zM88 1126l155 308h78l158 -308h-45l-150 146l-149 -146h-47zM211 109q0 -82 72 -82q71 0 71 82v847q0 82 -71 82q-72 0 -72 -82v-847z" />
<glyph unicode="&#xf5;" horiz-adv-x="565" d="M51 199v667q0 88 66 148.5t166 60.5t165.5 -60.5t65.5 -148.5v-667q0 -88 -65.5 -148.5t-165.5 -60.5t-166 60.5t-66 148.5zM56 1159l12 60q23 112 122 112q23 0 50 -6l156 -37q14 -3 26 -3q46 0 74 56l35 -10l-13 -59q-23 -113 -121 -113q-24 0 -51 6l-155 37 q-15 4 -27 4q-45 0 -74 -57zM211 109q0 -82 72 -82q71 0 71 82v847q0 82 -71 82q-72 0 -72 -82v-847z" />
<glyph unicode="&#xf6;" horiz-adv-x="565" d="M51 199v667q0 88 66 148.5t166 60.5t165.5 -60.5t65.5 -148.5v-667q0 -88 -65.5 -148.5t-165.5 -60.5t-166 60.5t-66 148.5zM102 1143v215h143v-215h-143zM211 109q0 -82 72 -82q71 0 71 82v847q0 82 -71 82q-72 0 -72 -82v-847zM323 1143v215h143v-215h-143z" />
<glyph unicode="&#xf7;" horiz-adv-x="838" d="M70 625v126h698v-126h-698zM314 430q0 44 30.5 75.5t73.5 31.5q44 0 74.5 -31.5t30.5 -75.5t-30.5 -75t-74.5 -31q-43 0 -73.5 31t-30.5 75zM314 944q0 44 30.5 75t73.5 31q44 0 74.5 -31t30.5 -75t-30.5 -75.5t-74.5 -31.5q-43 0 -73.5 31.5t-30.5 75.5z" />
<glyph unicode="&#xf8;" horiz-adv-x="565" d="M51 199v667q0 88 66 148.5t166 60.5q52 0 98 -18l33 131h49l-39 -154q90 -63 90 -168v-667q0 -88 -65.5 -148.5t-165.5 -60.5q-53 0 -99 18l-32 -131h-50l39 154q-90 63 -90 168zM211 109q0 -82 72 -82q71 0 71 82v628zM211 328l143 628q0 82 -71 82q-72 0 -72 -82v-628z " />
<glyph unicode="&#xf9;" horiz-adv-x="582" d="M10 1028v37h211v-956q0 -78 60 -78q38 0 73 35v962h-51v37h211v-1028h51v-37h-211v29q-45 -39 -118 -39q-175 0 -175 188v850h-51zM55 1413v21h174l84 -308h-45z" />
<glyph unicode="&#xfa;" horiz-adv-x="582" d="M10 1028v37h211v-956q0 -78 60 -78q38 0 73 35v962h-51v37h211v-1028h51v-37h-211v29q-45 -39 -118 -39q-175 0 -175 188v850h-51zM254 1126l84 308h174v-21l-213 -287h-45z" />
<glyph unicode="&#xfb;" horiz-adv-x="582" d="M10 1028v37h211v-956q0 -78 60 -78q38 0 73 35v962h-51v37h211v-1028h51v-37h-211v29q-45 -39 -118 -39q-175 0 -175 188v850h-51zM88 1126l155 308h78l158 -308h-45l-150 146l-149 -146h-47z" />
<glyph unicode="&#xfc;" horiz-adv-x="582" d="M10 1028v37h211v-956q0 -78 60 -78q38 0 73 35v962h-51v37h211v-1028h51v-37h-211v29q-45 -39 -118 -39q-175 0 -175 188v850h-51zM102 1143v215h143v-215h-143zM323 1143v215h143v-215h-143z" />
<glyph unicode="&#xfd;" horiz-adv-x="578" d="M10 1028v37h211v-936q0 -78 60 -78q38 0 73 35v942h-51v37h211v-1153q0 -88 -62 -148.5t-161 -60.5q-93 0 -161.5 61.5t-68.5 147.5v37h160v-127q0 -82 70 -82q63 0 63 82v227q-45 -39 -118 -39q-175 0 -175 189v829h-51zM242 1126l84 308h174v-21l-213 -287h-45z" />
<glyph unicode="&#xfe;" horiz-adv-x="569" d="M12 -250h51v1647h-51v37h211v-398q45 39 119 39q174 0 174 -188v-709q0 -188 -174 -188q-74 0 -119 39v-279h51v-37h-262v37zM223 66q35 -35 74 -35q59 0 59 78v847q0 78 -59 78q-39 0 -74 -35v-933z" />
<glyph unicode="&#xff;" horiz-adv-x="578" d="M10 1028v37h211v-936q0 -78 60 -78q38 0 73 35v942h-51v37h211v-1153q0 -88 -62 -148.5t-161 -60.5q-93 0 -161.5 61.5t-68.5 147.5v37h160v-127q0 -82 70 -82q63 0 63 82v227q-45 -39 -118 -39q-175 0 -175 189v829h-51zM100 1143v215h143v-215h-143zM321 1143v215h143 v-215h-143z" />
<glyph unicode="&#x152;" horiz-adv-x="901" d="M61 209v1016q0 86 72.5 147.5t173.5 61.5h543v-430h-164v393h-133v-621h195v-37h-195v-702h133v393h164v-430h-543q-101 0 -173.5 61.5t-72.5 147.5zM225 119q0 -34 24 -58t58 -24h82v1360h-82q-34 0 -58 -24t-24 -58v-1196z" />
<glyph unicode="&#x153;" horiz-adv-x="868" d="M51 199v667q0 88 66 148.5t166 60.5q89 0 151 -49q62 49 152 49q100 0 165.5 -60.5t65.5 -148.5v-350h-303v-407q0 -82 72 -82q71 0 71 82v217h160v-127q0 -88 -65.5 -148.5t-165.5 -60.5q-77 0 -152 59q-63 -59 -151 -59q-100 0 -166 60.5t-66 148.5zM211 109 q0 -82 72 -82q71 0 71 82v847q0 82 -71 82q-72 0 -72 -82v-847zM514 553h143v403q0 82 -71 82q-72 0 -72 -82v-403z" />
<glyph unicode="&#x178;" horiz-adv-x="584" d="M10 1397v37h262v-37h-51l121 -713l131 713h-51v37h151v-37h-51l-153 -817v-543h51v-37h-266v37h51v543l-144 817h-51zM125 1485v215h143v-215h-143zM346 1485v215h143v-215h-143z" />
<glyph unicode="&#x2c6;" d="M111 1126l155 308h78l158 -308h-45l-150 146l-149 -146h-47z" />
<glyph unicode="&#x2dc;" d="M70 1159l12 60q23 112 122 112q23 0 50 -6l156 -37q14 -3 26 -3q46 0 74 56l35 -10l-13 -59q-23 -113 -121 -113q-24 0 -51 6l-155 37q-15 4 -27 4q-45 0 -74 -57z" />
<glyph unicode="&#x2000;" horiz-adv-x="896" />
<glyph unicode="&#x2001;" horiz-adv-x="1792" />
<glyph unicode="&#x2002;" horiz-adv-x="896" />
<glyph unicode="&#x2003;" horiz-adv-x="1792" />
<glyph unicode="&#x2004;" horiz-adv-x="597" />
<glyph unicode="&#x2005;" horiz-adv-x="448" />
<glyph unicode="&#x2006;" horiz-adv-x="298" />
<glyph unicode="&#x2007;" horiz-adv-x="298" />
<glyph unicode="&#x2008;" horiz-adv-x="224" />
<glyph unicode="&#x2009;" horiz-adv-x="358" />
<glyph unicode="&#x200a;" horiz-adv-x="99" />
<glyph unicode="&#x2010;" horiz-adv-x="307" d="M35 733v49h237v-49h-237z" />
<glyph unicode="&#x2011;" horiz-adv-x="307" d="M35 733v49h237v-49h-237z" />
<glyph unicode="&#x2012;" horiz-adv-x="307" d="M35 733v49h237v-49h-237z" />
<glyph unicode="&#x2013;" horiz-adv-x="410" d="M35 737v41h340v-41h-340z" />
<glyph unicode="&#x2014;" d="M35 737v41h545v-41h-545z" />
<glyph unicode="&#x2018;" horiz-adv-x="270" d="M27 1004v36l120 394h76l-33 -430h-163z" />
<glyph unicode="&#x2019;" horiz-adv-x="270" d="M29 1004l32 430h164v-37l-121 -393h-75z" />
<glyph unicode="&#x201a;" horiz-adv-x="270" d="M33 -184l33 430h163v-37l-120 -393h-76z" />
<glyph unicode="&#x201c;" horiz-adv-x="492" d="M27 1004v36l120 394h76l-33 -430h-163zM248 1004v36l121 394h75l-32 -430h-164z" />
<glyph unicode="&#x201d;" horiz-adv-x="492" d="M29 1004l32 430h164v-37l-121 -393h-75zM250 1004l33 430h163v-37l-120 -393h-76z" />
<glyph unicode="&#x201e;" horiz-adv-x="492" d="M33 -184l33 430h163v-37l-120 -393h-76zM254 -184l33 430h164v-37l-121 -393h-76z" />
<glyph unicode="&#x2022;" horiz-adv-x="565" d="M74 526v381q0 94 58.5 151.5t150.5 57.5q91 0 150 -57.5t59 -151.5v-381q0 -94 -59 -151.5t-150 -57.5q-92 0 -150.5 57.5t-58.5 151.5z" />
<glyph unicode="&#x2026;" horiz-adv-x="768" d="M49 0v246h158v-246h-158zM305 0v246h158v-246h-158zM561 0v246h158v-246h-158z" />
<glyph unicode="&#x202f;" horiz-adv-x="358" />
<glyph unicode="&#x2039;" horiz-adv-x="360" d="M33 655v41l209 369h61l-92 -389l92 -387h-61z" />
<glyph unicode="&#x203a;" horiz-adv-x="360" d="M57 289l93 387l-93 389h62l209 -369v-41l-209 -366h-62z" />
<glyph unicode="&#x205f;" horiz-adv-x="448" />
<glyph unicode="&#x20ac;" horiz-adv-x="655" d="M20 686v37h82v68h-82v36h82v408q0 86 72.5 147.5t173.5 61.5t173.5 -61.5t72.5 -147.5v-231h-164v321q0 34 -24 58t-58 24t-58 -24t-24 -58v-498h226v-36h-226v-68h226v-37h-226v-577q0 -34 24 -58t58 -24t58 24t24 58v321h164v-231q0 -86 -72.5 -147.5t-173.5 -61.5 t-173.5 61.5t-72.5 147.5v487h-82z" />
<glyph unicode="&#x2122;" horiz-adv-x="1024" d="M29 1133v301h434v-301h-111v274h-47v-789h35v-24h-186v24h32v789h-47v-274h-110zM508 594v24h35v789h-35v27h151l101 -639l86 639h151v-27h-34v-789h34v-24h-186v24h33v510l-78 -534h-92l-92 534v-510h34v-24h-108z" />
<glyph unicode="&#x25fc;" horiz-adv-x="1065" d="M0 0v1065h1065v-1065h-1065z" />
<glyph unicode="&#xfb01;" horiz-adv-x="629" d="M20 0v37h52v991h-52v37h52v160q0 87 65.5 148t165.5 61h258v-246h-160v209h-98q-72 0 -72 -82v-250h330v-1028h51v-37h-262v37h51v991h-170v-991h52v-37h-263z" />
<glyph unicode="&#xfb02;" horiz-adv-x="629" d="M20 0v37h52v991h-52v37h52v160q0 87 65.5 148t165.5 61h258v-1397h51v-37h-262v37h51v1360h-98q-72 0 -72 -82v-250h82v-37h-82v-991h52v-37h-263z" />
</font>
</defs>
</svg>
